<?xml version="1.0" encoding="UTF-8" standalone="no"?>
<!-- Created with Inkscape (http://www.inkscape.org/) -->

<svg
   version="1.1"
   id="svg853"
   width="2358"
   height="1350"
   viewBox="0 0 2358 1350"
   sodipodi:docname="Institut_Jantung_Negara_logo.svg"
   inkscape:version="1.1.2 (0a00cf5339, 2022-02-04)"
   xmlns:inkscape="http://www.inkscape.org/namespaces/inkscape"
   xmlns:sodipodi="http://sodipodi.sourceforge.net/DTD/sodipodi-0.dtd"
   xmlns="http://www.w3.org/2000/svg"
   xmlns:svg="http://www.w3.org/2000/svg">
  <defs
     id="defs857" />
  <sodipodi:namedview
     id="namedview855"
     pagecolor="#ffffff"
     bordercolor="#666666"
     borderopacity="1.0"
     inkscape:pageshadow="2"
     inkscape:pageopacity="0.0"
     inkscape:pagecheckerboard="0"
     showgrid="false"
     inkscape:snap-global="true"
     showguides="true"
     inkscape:guide-bbox="true"
     inkscape:zoom="0.18829992"
     inkscape:cx="1532.1303"
     inkscape:cy="756.77145"
     inkscape:window-width="1920"
     inkscape:window-height="1011"
     inkscape:window-x="1920"
     inkscape:window-y="32"
     inkscape:window-maximized="1"
     inkscape:current-layer="g859" />
  <g
     inkscape:groupmode="layer"
     inkscape:label="Image"
     id="g859"
     style="display:inline">
    <ellipse
       style="fill:#8dd8f8;fill-opacity:1;stroke-width:12.1422"
       id="path2005"
       cx="1182.0994"
       cy="469.53326"
       rx="1158.4691"
       ry="433.76804" />
    <rect
       style="fill:#004a8f;fill-opacity:1;stroke-width:9.69449"
       id="rect32085"
       width="118.99373"
       height="106.83813"
       x="509.82605"
       y="223.08672" />
    <rect
       style="fill:#004a8f;fill-opacity:1;stroke-width:9.69449"
       id="rect32205"
       width="119.02171"
       height="199.90919"
       x="509.79807"
       y="356.74548" />
    <path
       id="rect32207"
       style="fill:#004a8f;fill-opacity:1;stroke-width:9.69449"
       d="M 665.25391,356.74609 V 580.46094 H 509.79883 V 699.4082 h 190.87109 24.19531 c 38.51393,0 59.61329,-40.35588 59.61329,-83.29687 V 356.74609 Z"
       sodipodi:nodetypes="cccccsscc" />
    <path
       id="path39867"
       style="fill:#004a8f;fill-opacity:1;stroke-width:9.69449"
       d="M 665.25391,356.74609 V 580.46094 H 509.79883 V 699.4082 h 190.87109 24.19531 c 38.51393,0 59.61329,-40.35588 59.61329,-83.29687 V 356.74609 Z"
       sodipodi:nodetypes="cccccsscc" />
    <path
       style="fill:#000000"
       d="m 551.94666,1306.4578 c -7.37462,-2.4179 -11.91641,-6.3028 -14.4458,-12.3565 -3.36748,-8.0595 -1.27554,-17.0867 5.54756,-23.9391 5.90398,-5.9293 14.22664,-8.742 28.2875,-9.5599 l 9.88277,-0.575 -0.54877,-7.256 c -0.30182,-3.9908 -1.04992,-8.1924 -1.66243,-9.3369 -3.52335,-6.5834 -17.62624,-7.0719 -31.57323,-1.0935 l -4.48113,1.9208 v -5.8188 -5.8188 l 7.75,-2.3643 c 5.88547,-1.7956 10.15585,-2.3719 17.75,-2.3957 11.88185,-0.037 17.51962,2.0076 22.10846,8.0188 l 2.89153,3.7877 0.50737,26.0811 c 0.54672,28.1034 0.91482,30.0903 5.77149,31.1528 4.94555,1.082 5.22114,1.338 5.22114,4.8499 0,3.1746 -0.33341,3.577 -3.75,4.5258 -8.05773,2.2378 -14.0053,0.1459 -17.04324,-5.9943 l -1.91903,-3.8787 -3.39387,2.5418 c -8.70296,6.518 -20.1645,9.7173 -26.90032,7.5088 z m 20.50647,-13.493 c 7.98902,-3.7525 8.62902,-4.9301 8.29076,-15.2558 l -0.29077,-8.8762 -4,-0.3389 c -5.50838,-0.4667 -14.1605,1.5439 -19.24442,4.472 -6.74027,3.8822 -8.95011,10.1893 -5.743,16.3912 3.20848,6.2045 12.1766,7.7461 20.98743,3.6077 z m 67.49352,13.4953 c -5.51056,-1.8117 -9.13198,-4.3792 -11.7478,-8.329 l -2.74573,-4.1459 -0.5,-27.0762 -0.5,-27.0762 -4.75,-0.3048 -4.75,-0.3048 v -4.8904 -4.8904 l 4.75,-0.3048 4.75,-0.3048 0.29287,-6.6261 0.29286,-6.6261 3.70714,-0.6129 c 2.03892,-0.3371 5.16963,-0.6178 6.95713,-0.6239 l 3.25,-0.011 v 7.5 7.5 h 9.5 9.5 v 5 5 h -9.5 -9.5 v 24.5497 c 0,27.0529 0.38958,29.1264 5.90134,31.4094 1.64761,0.6825 5.26911,1.0834 8.04778,0.8909 l 5.05212,-0.35 -6.2e-4,4.691 c -3.4e-4,2.58 -0.39406,4.9341 -0.87493,5.2313 -1.62114,1.0019 -14.60401,1.5362 -17.13216,0.705 z m 100.22899,-0.1245 c -5.73138,-1.2165 -13.7975,-5.7128 -16.96489,-9.4568 -7.4478,-8.8036 -11.31902,-24.0443 -9.39436,-36.9849 2.17729,-14.639 8.49945,-24.1539 19.37493,-29.1594 5.64277,-2.5971 7.29981,-2.8815 16.7618,-2.8769 8.80286,0 11.30816,0.3743 15.5,2.2895 12.65873,5.7835 20.50001,20.0071 20.50001,37.1857 0,17.7445 -8.89475,33.0262 -21.80548,37.4631 -5.73617,1.9713 -18.17437,2.7702 -23.97201,1.5397 z m 18.75939,-11.9936 c 8.05479,-4.1092 12.01809,-12.9679 12.01809,-26.8626 0,-10.8414 -1.88682,-17.4861 -6.49356,-22.868 -3.99487,-4.6671 -8.37707,-6.4871 -15.48751,-6.432 -9.71375,0.075 -16.60747,6.1684 -19.56949,17.2969 -2.88091,10.8238 -1.01837,25.5034 4.19337,33.0499 5.09742,7.3809 16.94226,10.0996 25.3391,5.8158 z m 145.16185,11.8445 c -5.36066,-1.5428 -11.12955,-5.9055 -13.21541,-9.9942 -2.59438,-5.0854 -2.60213,-14.632 -0.016,-19.6493 5.44037,-10.5548 18.09043,-16.179 36.44352,-16.2026 l 5.85588,-0.01 -0.36257,-7.984 c -0.32363,-7.1263 -0.65761,-8.279 -3.10936,-10.7307 -2.39464,-2.3946 -3.6795,-2.7939 -10.0223,-3.1142 -6.86965,-0.3469 -13.84739,1.2548 -22.96754,5.272 -1.5513,0.6834 -1.75,0.1284 -1.75,-4.8871 0,-5.5742 0.0545,-5.6808 3.68138,-7.1962 12.17733,-5.088 29.74593,-5.4291 38.35292,-0.7446 9.14819,4.9791 9.38851,5.848 9.9657,36.033 0.45711,23.905 0.66342,26.3284 2.40499,28.25 1.04774,1.156 3.12899,2.1018 4.625,2.1018 2.24641,0 2.82883,0.5441 3.34501,3.125 0.9408,4.704 0.93436,4.7146 -3.58888,5.9326 -7.88128,2.1222 -14.82735,-0.5187 -17.36997,-6.604 l -1.4168,-3.3909 -5.69146,3.9868 c -8.79008,6.1575 -17.19809,8.0968 -25.16414,5.8042 z m 19.48413,-12.4681 c 2.12966,-0.8879 5.10962,-2.4936 6.62212,-3.5681 2.68879,-1.9102 2.75,-2.178 2.75,-12.0299 v -10.0763 l -7.36091,0.5567 c -8.07176,0.6105 -16.21554,3.5878 -19.56458,7.1527 -7.28794,7.7576 -1.92629,19.5793 8.88009,19.5793 2.64063,0 6.54361,-0.7265 8.67328,-1.6144 z m 262.50379,12.5368 c -10.9259,-2.1472 -19.7502,-9.3394 -25.3065,-20.626 -8.2762,-16.8112 -2.8227,-43.1352 10.9001,-52.615 15.2388,-10.527 36.1761,-5.9279 43.6775,9.5944 2.6061,5.3925 4.5764,15.0408 4.5896,22.4742 l 0.01,4.25 h -24.6278 -24.6278 l 0.6584,4.25 c 1.5621,10.0833 7.8556,18.2936 16.3452,21.3232 5.5746,1.9894 16.0811,1.738 23.4129,-0.5603 3.4865,-1.0929 6.6766,-1.9929 7.0891,-2 0.4125,-0.01 0.75,2.4448 0.75,5.4486 v 5.4614 l -3.75,0.9927 c -10.8867,2.8821 -21.0873,3.5851 -29.1183,2.0068 z m 19.1083,-52.3471 c -0.4999,-9.4683 -6.6375,-15.5753 -15.6535,-15.5753 -7.2446,0 -11.4736,2.5593 -14.8365,8.9789 -1.5125,2.8872 -2.75,6.784 -2.75,8.6595 v 3.41 l 16.75,-0.2742 16.75,-0.2742 z m 46.9818,51.955 c -10.3384,-3.2283 -14.6367,-9.6431 -14.0638,-20.9889 0.4329,-8.5727 2.8832,-12.9754 9.7968,-17.6035 6.1103,-4.0903 12.7888,-5.9066 24.394,-6.6344 l 9.8487,-0.6177 -0.3554,-7.8268 c -0.316,-6.9587 -0.6602,-8.1316 -3.1023,-10.5737 -2.3946,-2.3946 -3.6795,-2.7939 -10.0223,-3.1142 -6.8696,-0.3469 -13.8474,1.2548 -22.9675,5.272 -1.5572,0.6859 -1.75,0.114 -1.75,-5.1904 v -5.9614 l 7.5601,-2.2443 c 19.8026,-5.8787 36.2456,-2.6374 42.2179,8.3221 1.4389,2.6405 1.7857,7.1486 2.2141,28.7791 0.4635,23.4061 0.6744,25.832 2.4129,27.75 1.0847,1.1968 3.13,2.1018 4.75,2.1018 2.0377,0 2.8489,0.4966 2.8587,1.75 0.01,0.9625 0.2763,2.7293 0.5973,3.9261 0.4967,1.852 0.01,2.3353 -3.2637,3.2444 -8.4584,2.3487 -14.9607,0.055 -18.0178,-6.3558 l -1.6448,-3.449 -5.528,3.9585 c -8.9535,6.4115 -17.2714,8.1614 -25.9349,5.4561 z m 18.879,-11.7005 c 1.8695,-0.6436 5.0867,-2.2784 7.1492,-3.6329 l 3.75,-2.4627 v -9.8671 -9.8671 h -4.7899 c -2.6344,0 -7.4544,0.694 -10.711,1.5423 -14.453,3.7645 -19.5959,15.1498 -10.3556,22.925 3.3832,2.8468 9.1261,3.3699 14.9573,1.3625 z m 126.8927,12.2975 c -5.5105,-1.8117 -9.132,-4.3792 -11.7478,-8.329 l -2.7457,-4.1459 -0.5,-27.0762 -0.5,-27.0762 -4.75,-0.3048 -4.75,-0.3048 v -4.8904 -4.8904 l 4.75,-0.3048 4.75,-0.3048 0.2929,-6.6261 0.2928,-6.6261 3.7072,-0.6129 c 2.0389,-0.3371 5.1696,-0.6178 6.9571,-0.6239 l 3.25,-0.011 v 7.5 7.5 h 9.5 9.5 v 5 5 h -9.5 -9.5 v 24.5497 c 0,27.0529 0.3896,29.1264 5.9013,31.4094 1.6476,0.6825 5.2691,1.0834 8.0478,0.8909 l 5.0521,-0.35 -6e-4,4.691 c -3e-4,2.58 -0.394,4.9341 -0.8749,5.2313 -1.6211,1.0019 -14.604,1.5362 -17.1322,0.705 z m 221.0065,0.2697 c -1.375,-0.2508 -5.5375,-1.1661 -9.25,-2.0342 l -6.75,-1.5782 v -6.3923 c 0,-3.5158 0.1125,-6.3863 0.25,-6.3789 0.1375,0.01 4.075,1.3513 8.75,2.9866 14.6147,5.1121 24.2166,3.5125 27.6058,-4.5989 1.35,-3.231 1.3217,-3.8898 -0.3102,-7.2281 -1.4434,-2.9525 -3.1687,-4.316 -8.7956,-6.9507 -22.1406,-10.3673 -25.5078,-13.2707 -26.2869,-22.6661 -0.6432,-7.7558 0.4252,-12.0746 3.9915,-16.1365 6.4908,-7.3926 16.3645,-9.6811 32.1198,-7.4446 l 8.6756,1.2315 v 5.9641 c 0,5.2154 -0.2197,5.8975 -1.75,5.4338 -9.629,-2.9174 -20.8081,-3.4015 -25.27,-1.0941 -5.0182,2.5949 -6.4649,7.9245 -3.3561,12.3631 0.9052,1.2923 6.7493,4.7267 13.2047,7.7599 6.3695,2.9929 13.0679,6.5757 14.8854,7.962 4.9469,3.7732 7.286,9.1512 7.286,16.7517 0,5.5912 -0.4226,7.0563 -3.25,11.2674 -4.506,6.7113 -11.6342,10.2576 -21.75,10.8208 -4.125,0.2297 -8.625,0.2124 -10,-0.038 z m 75.5,-0.2646 c -6.747,-1.7657 -12.6576,-7.437 -14.4399,-13.8551 -0.6011,-2.1648 -1.0513,-14.3431 -1.0545,-28.5273 l -0.01,-24.75 h -4.5 -4.5 v -5 -5 h 4.5 4.5 v -6.8692 -6.8691 l 3.75,-0.6199 c 2.0625,-0.3409 5.2125,-0.6247 7,-0.6308 l 3.25,-0.011 v 7.5 7.5 h 10 10 v 5 5 h -10 -10 v 23.5321 c 0,25.2613 0.5419,28.6327 5.1169,31.8372 1.5002,1.0508 4.3827,1.6307 8.1056,1.6307 h 5.7775 v 4.441 c 0,2.4425 -0.4317,4.7077 -0.9592,5.0338 -1.6434,1.0157 -13.3885,1.4826 -16.5408,0.6576 z m 96.4935,-0.01 c -5.5105,-1.8117 -9.132,-4.3792 -11.7478,-8.329 l -2.7457,-4.1459 -0.5,-27.0762 -0.5,-27.0762 -4.75,-0.3048 -4.75,-0.3048 v -4.8904 -4.8904 l 4.75,-0.3048 4.75,-0.3048 0.2929,-6.6261 0.2928,-6.6261 3.7072,-0.6129 c 2.0389,-0.3371 5.1696,-0.6178 6.9571,-0.6239 l 3.25,-0.011 v 7.5 7.5 h 9.5 9.5 v 5 5 h -9.5 -9.5 v 24.5497 c 0,27.0529 0.3896,29.1264 5.9013,31.4094 1.6476,0.6825 5.2691,1.0834 8.0478,0.8909 l 5.0521,-0.35 -6e-4,4.691 c -3e-4,2.58 -0.394,4.9341 -0.8749,5.2313 -1.6211,1.0019 -14.604,1.5362 -17.1322,0.705 z m 49.1762,-0.062 c -4.5248,-1.1483 -10.0934,-5.8413 -12.5993,-10.6182 -1.944,-3.7057 -2.0889,-5.8551 -2.373,-35.1967 l -0.3027,-31.25 h 7.0527 7.0526 v 28.0321 c 0,31.7224 0.3563,33.7396 6.4745,36.6571 3.1107,1.4834 4.2097,1.5443 8.3053,0.4602 6.3996,-1.694 11.3874,-5.1547 16.195,-11.2367 l 4.0252,-5.0923 v -24.4102 -24.4102 h 6.5 6.5 v 38 38 h -6.5 -6.5 v -6.5 c 0,-3.575 -0.2157,-6.5 -0.4794,-6.5 -0.2637,0 -2.3375,2.0158 -4.6085,4.4795 -7.2561,7.8719 -19.4585,11.9413 -28.7424,9.5854 z m 90.1885,0.042 c -5.8173,-1.5004 -10.1132,-4.9746 -12.7877,-10.3415 -2.561,-5.1393 -2.5705,-5.2539 -2.5705,-30.962 v -25.8037 h -5 -5 v -5 -5 h 5 5 v -6.8692 -6.8691 l 3.75,-0.6199 c 2.0625,-0.3409 5.2125,-0.6247 7,-0.6308 l 3.25,-0.011 v 7.5 7.5 h 10 10 v 5 5 h -10.0481 -10.0481 l 0.2981,25.5836 0.2981,25.5836 3.2658,2.9164 c 2.8366,2.5331 4.0522,2.9164 9.25,2.9164 h 5.9842 v 4.441 c 0,2.4425 -0.4317,4.7077 -0.9592,5.0338 -1.669,1.0315 -13.4098,1.4766 -16.6826,0.6324 z m 62.8643,-0.1034 c -6.2014,-1.3177 -13.7014,-5.7148 -18.3505,-10.7585 -17.2577,-18.7224 -12.6072,-54.0335 8.5645,-65.0308 4.343,-2.2558 6.3442,-2.6361 14.0635,-2.6723 8.2396,-0.039 9.4647,0.2184 14.5,3.0419 5.9041,3.3108 11.0741,9.7299 13.0787,16.2386 0.6229,2.0225 1.3637,7.8398 1.6462,12.9273 l 0.5137,9.25 h -24.1193 -24.1193 v 2.9625 c 0,1.6294 0.9269,5.4398 2.0597,8.4676 2.411,6.444 8.6997,12.582 14.7471,14.3939 5.9557,1.7843 16.2105,1.4282 23.3541,-0.8111 3.4865,-1.0929 6.6766,-1.9929 7.0891,-2 0.4125,-0.01 0.75,2.4074 0.75,5.3655 v 5.3785 l -6.7076,1.6849 c -8.1356,2.0435 -21.244,2.8 -27.0699,1.562 z m 19.7555,-51.2538 c -0.03,-5.8508 -3.1614,-12.2817 -7.1699,-14.7256 -4.0036,-2.441 -12.5645,-2.7189 -16.7695,-0.5444 -1.5741,0.814 -3.8098,2.6849 -4.9682,4.1576 -2.401,3.0524 -5.5197,12.8264 -4.5785,14.3493 0.3817,0.6177 7.043,1.0131 17.0671,1.0131 h 16.441 z m -1577.97797,-1.7873 v -52.042 l 7.67585,0.292 7.67584,0.2921 25.57416,39.3884 25.57415,39.3884 0.26147,-39.6384 0.26148,-39.6384 h 6.48852 6.48853 v 52 52 h -7.41988 -7.41989 l -25.83011,-39.655 -25.83012,-39.6551 -0.26147,39.6551 -0.26148,39.655 h -6.48852 -6.48853 z m 244.99999,14.0421 v -38 h 7 7 v 38 38 h -7 -7 z m 127.00001,0 v -38 h 7 7 v 6.4777 6.4776 l 3.9616,-4.2978 c 5.81719,-6.3109 12.94495,-9.8505 20.93882,-10.3982 5.83105,-0.3994 7.23606,-0.1166 12.06523,2.4287 4.44632,2.3434 5.98494,3.8747 8.25,8.2105 l 2.78435,5.3299 v 30.8858 30.8858 h -7 -7 v -29.4842 -29.4842 l -2.91797,-3.2658 c -2.53685,-2.8393 -3.55258,-3.2658 -7.7767,-3.2658 -6.71797,0 -13.69935,3.791 -19.03493,10.3363 l -4.2704,5.2386 v 24.9626 24.9625 h -7 -7 z m 167,-17.5 v -55.5 h 7 7 v 55.5 55.5 h -7 -7 z m 81.99997,3.5 v -52 h 7.5 7.5 v 22 22 h 24.5 24.5 v -22 -22 h 7.5 7.5 v 52 52 h -7.5 -7.5 v -24.5 -24.5 h -24.5 -24.5 v 24.5 24.5 h -7.5 -7.5 z m 268,14 v -38 h 7 7 v 6.5777 6.5778 l 3.2845,-4.3063 c 4.7549,-6.2341 11.2159,-9.9029 18.6224,-10.5745 l 6.0931,-0.5525 v 6.4056 6.4055 h -5.764 c -7.2165,0 -13.6191,3.4691 -18.7113,10.1382 l -3.5247,4.6161 v 25.3562 25.3562 h -7 -7 z m 151,-14 v -52 h 7.5 7.5 v 52 52 h -7.5 -7.5 z m 45,14 v -38 h 7 7 v 6.4777 6.4776 l 3.9616,-4.2978 c 13.175,-14.2932 33.7929,-13.985 41.7793,0.6245 1.5542,2.8432 1.7943,6.9162 2.0611,34.968 l 0.3019,31.75 h -7.0099 -7.0099 l -0.292,-29.9787 -0.2921,-29.9787 -2.7727,-2.7713 c -5.9178,-5.9148 -18.3713,-2.3539 -26.4569,7.565 l -4.2704,5.2386 v 24.9626 24.9625 h -7 -7 z m 211,0 v -38 h 7 7 v 38 38 h -7 -7 z m -1050.99998,-59 v -7 h 7 7 v 7 7 h -7 -7 z m 1050.99998,0 v -7 h 7 7 v 7 7 h -7 -7 z m -916.74997,-54.6734 -3.25,-0.4533 v -8.004 c 0,-7.1552 0.1856,-7.9487 1.75,-7.4819 6.99973,2.0886 12.11555,2.7905 17.73219,2.4328 7.6167,-0.485 11.04541,-2.5358 14.01781,-8.3847 1.92419,-3.7863 2.01088,-6.2192 2.28694,-64.1855 l 0.28693,-60.25 h 9.03335 9.03336 l -0.36623,59.25 c -0.35768,57.865 -0.41764,59.4044 -2.5652,65.8534 -2.91969,8.7677 -8.20217,14.7093 -16.40093,18.4472 -5.60545,2.5556 -7.53368,2.8957 -17.30822,3.0527 -6.05,0.097 -12.4625,-0.027 -14.25,-0.2767 z m -594.25,-20.9827 c -1.375,-0.211 -6.6625,-1.3071 -11.75,-2.4358 l -9.25,-2.0521 v -8.8082 -8.8082 l 9.62129,3.9616 c 12.69791,5.2284 24.37393,6.8483 32.3992,4.4951 12.48277,-3.6602 18.28304,-15.8238 13.04587,-27.3582 -2.14891,-4.7328 -8.69795,-9.6296 -27.20025,-20.3381 -20.41506,-11.8155 -27.14742,-20.2165 -27.24663,-34 -0.12427,-17.2643 11.3526,-29.6486 29.9605,-32.3293 7.81198,-1.1255 21.63307,0.031 31.92002,2.6713 l 5,1.2833 0.28947,8.1271 0.28947,8.1272 -9.93422,-3.3782 c -18.00906,-6.1242 -29.43005,-5.4962 -35.99345,1.9791 -9.40561,10.7124 -5.36473,20.4317 12.86902,30.9532 28.33016,16.3474 32.76189,19.8127 37.12052,29.0259 2.40198,5.0773 2.85761,7.316 2.85761,14.0404 0,6.7624 -0.44596,8.9282 -2.88282,14 -5.32956,11.0924 -15.53481,18.2567 -29.1156,20.44 -6.26511,1.0071 -16.80838,1.2007 -22,0.4039 z m 374.04266,-0.4824 c -16.85188,-2.7937 -29.03337,-14.3422 -31.95571,-30.2952 -0.67699,-3.6956 -1.08695,-22.6483 -1.08695,-50.25 v -44.3163 h 8.5 8.49999 l 0.0309,39.75 c 0.017,21.8625 0.46861,43.1238 1.00362,47.2473 1.32094,10.1808 4.80535,17.0458 10.59991,20.8839 11.15453,7.3885 29.44175,6.1708 37.56254,-2.5012 6.33006,-6.7597 6.27333,-6.2606 6.607,-58.13 l 0.30395,-47.25 h 7.94605 7.94605 l -0.0173,40.25 c -0.0193,44.8716 -0.81204,56.5133 -4.37869,64.3038 -7.66883,16.751 -27.02642,24.375 -51.56131,20.3077 z m 683.72071,0.1057 c -11.9846,-2.018 -21.143,-7.2983 -26.7213,-15.406 -6.6188,-9.6201 -6.4621,-8.2115 -6.8215,-61.3112 l -0.3266,-48.25 h 8.4888 8.4888 l 0.3609,45.25 c 0.3261,40.8891 0.538,45.7319 2.199,50.25 2.7117,7.3762 5.8712,11.0117 12.3055,14.1598 4.839,2.3674 7.0261,2.8169 13.7583,2.8276 10.0984,0.016 16.2608,-2.2163 20.8187,-7.5411 6.0435,-7.0605 6.0386,-7.0158 6.4338,-58.1963 l 0.3611,-46.75 h 7.49 7.49 l -0.2944,48.75 c -0.2923,48.3776 -0.3123,48.794 -2.6207,54.5115 -2.6992,6.6855 -9.7956,14.4846 -16.1114,17.7067 -8.5368,4.3551 -23.2708,6.0243 -35.299,3.999 z m 247.2366,0.1244 c -13.6772,-1.9622 -25.0216,-7.6357 -32.3528,-16.1801 -5.2597,-6.1301 -11.3798,-18.9841 -13.2894,-27.9115 -2.1755,-10.1707 -2.1226,-29.2511 0.1083,-39 4.9541,-21.6502 19.227,-37.3584 38.6649,-42.5531 12.287,-3.2837 33.1378,-2.7925 51.3519,1.2098 l 7.5171,1.6518 v 8.2278 8.2277 l -10.6718,-3.3867 c -20.3392,-6.4546 -35.8075,-6.7181 -47.9887,-0.8175 -13.4714,6.5255 -21.6425,23.959 -21.7668,46.4402 -0.1001,18.1058 4.1709,30.6484 13.6714,40.1489 10.6439,10.6439 27.3769,14.2488 45.2496,9.7484 l 4.5063,-1.1347 v -19.8813 -19.8813 h 9 9 v 24.8467 24.8468 l -10.8417,2.6783 c -11.8,2.9151 -31.8022,4.2055 -42.1583,2.7198 z m 393.2263,-0.1677 c -22.4941,-3.477 -37.5584,-18.0605 -43.8224,-42.4239 -2.4647,-9.5861 -2.5183,-32.3224 -0.098,-41.5 4.1627,-15.7834 14.802,-30.5906 26.4126,-36.7598 14.934,-7.9351 36.9875,-9.1793 63.5313,-3.5844 l 7.75,1.6335 v 8.2077 8.2076 l -11.1672,-3.3856 c -26.0008,-7.8828 -42.6718,-6.5629 -54.7968,4.3385 -16.5134,14.847 -20.0966,53.6972 -6.875,74.5397 9.9379,15.6661 29.79,22.1246 51.3327,16.7001 l 4.5063,-1.1347 v -19.8813 -19.8813 h 8.5 8.5 v 24.8417 24.8417 l -3.75,1.1215 c -14.0344,4.197 -37.1864,6.1034 -50.0237,4.119 z M 28.953129,1068.8328 v -61.5 h 9 9 v 61.5 61.5 h -9 -9 z m 49,0 v -61.5 h 8.9687 8.9687 l 31.281301,46.75 31.2813,46.75 0.25989,-46.75 0.25989,-46.75 h 7.99011 7.99011 v 61.5 61.5 h -8.9443 -8.94429 l -31.30571,-46.6463 -31.305701,-46.6464 -0.25989,46.6464 -0.25989,46.6463 h -7.99011 -7.99011 z m 249.000001,6.5 v -55 h -22 -22 v -6.5 -6.5 h 52.5 52.5 v 6.4805 6.4805 l -21.75,0.2695 -21.75,0.2695 -0.25854,54.75 -0.25854,54.75 h -8.49146 -8.49146 z m 77,-6.5 v -61.5 h 9 9 v 61.5 61.5 h -9 -9 z m 79.75854,6.75 -0.25854,-54.75 -21.75,-0.2695 -21.75,-0.2695 v -6.4805 -6.4805 h 52.5 52.5 v 6.4805 6.4805 l -21.75,0.2695 -21.75,0.2695 -0.25854,54.75 -0.25854,54.75 h -8.48292 -8.48292 z m 225.24145,-0.25 v -55 h -22 -22 v -6.5 -6.5 h 52.5 52.5 v 6.5 6.5 h -21.5 -21.5 v 55 55 h -9 -9 z m 170.45483,53.1424 c 0.33885,-1.0677 11.33062,-28.649 24.42616,-61.2918 l 23.81007,-59.3506 8.59889,-0.2881 c 7.4216,-0.2487 8.7272,-0.043 9.53611,1.5 0.51548,0.9834 10.71029,26.5381 22.65514,56.7881 11.94485,30.25 22.56655,57.1375 23.60377,59.75 l 1.88586,4.75 -9.73541,-10e-4 h -9.73541 l -6.52415,-16.749 -6.52416,-16.749 h -26.41783 -26.41783 l -6.61307,16.5 -6.61307,16.5 -8.27558,0.2917 c -7.80087,0.2751 -8.24024,0.1804 -7.65949,-1.6493 z m 75.23441,-48.3924 c -0.73568,-1.7875 -5.32558,-13.2625 -10.19977,-25.5 -4.87419,-12.2375 -9.14445,-22.25 -9.48946,-22.25 -0.34501,0 -4.61527,10.0125 -9.48946,22.25 -4.87419,12.2375 -9.46409,23.7125 -10.19977,25.5 l -1.33761,3.25 h 21.02684 21.02684 z m 54.31074,-11.25 v -61.5 h 8.345 c 6.7124,0 8.6371,0.3424 9.8376,1.75 0.821,0.9625 14.7282,21.9575 30.905,46.6555 l 29.4124,44.9054 0.2599,-46.6554 0.2599,-46.6555 h 7.4901 7.4901 v 61.5 61.5 h -8.4015 -8.4014 l -30.2539,-46.037 c -16.6396,-25.3203 -30.634,-46.2719 -31.0985,-46.559 -0.4646,-0.2871 -0.8447,20.4295 -0.8447,46.037 v 46.559 h -7.5 -7.5 z m 156.7585,6.75 -0.2585,-54.75 -21.75,-0.2695 -21.75,-0.2695 v -6.4805 -6.4805 h 52.5 52.5 v 6.5 6.5 h -22 -22 v 55 55 h -8.4915 -8.4914 z m 195.2415,-6.7889 v -61.539 l 8.6868,0.289 8.6869,0.2889 30.5631,46.5782 30.5632,46.5782 0.2598,-46.8282 0.2598,-46.8282 h 7.4902 7.4902 v 61.5389 61.539 l -8.6738,-0.289 -8.6739,-0.2889 -30.8261,-46.8714 -30.8262,-46.8714 v 47.1214 47.1214 h -7.5 -7.5 z m 302,0.039 v -61.5 h 8.8909 8.891 l 30.859,46.9563 30.8591,46.9564 0.2598,-46.9564 0.2598,-46.9563 h 7.4902 7.4902 v 61.5 61.5 l -8.75,-0.04 -8.75,-0.04 -30.5,-46.5988 -30.5,-46.5989 -0.2599,46.6389 -0.2599,46.6389 h -7.9901 -7.9901 v -61.5 z m 126,0 v -61.5 h 35 35 v 6.5 6.5 h -26 -26 v 20 20 h 21.5 21.5 v 6 6 h -21.5 -21.5 v 22.5 22.5 h 27.5 27.5 v 6.5 6.5 h -36.5 -36.5 z m 201.0575,60.25 c 0.032,-0.6875 10.9441,-28.25 24.25,-61.25 l 24.1925,-60 h 8.8783 8.8783 l 23.8717,60.4069 c 13.1294,33.2238 23.8717,60.7863 23.8717,61.25 0,0.4637 -4.1929,0.8431 -9.3176,0.8431 h -9.3176 l -6.7774,-17 -6.7773,-17 h -26.2227 -26.2226 l -6.7774,17 -6.7773,17 h -7.9051 c -5.688,0 -7.8889,-0.3506 -7.8475,-1.25 z m 75.9425,-46.5682 c 0,-0.4499 -4.0929,-11.1374 -9.0953,-23.75 -5.0024,-12.6125 -9.5369,-24.0569 -10.0767,-25.4319 -0.8662,-2.2065 -2.2051,0.5402 -11.4047,23.3966 -5.7328,14.2431 -10.4233,26.0556 -10.4233,26.25 0,0.1944 9.225,0.3534 20.5,0.3534 11.275,0 20.5,-0.3681 20.5,-0.8181 z m 55,-13.6819 v -61.5 l 21.25,0.01 c 23.7501,0.01 31.7363,0.9383 38.7999,4.5177 9.0368,4.5793 14.314,14.4898 14.2525,26.7659 -0.034,6.876 -0.4581,8.6381 -3.6068,15 -4.0791,8.2419 -7.9711,12.3967 -15.4332,16.4756 l -5.2377,2.8629 19.9108,27.6563 c 10.9509,15.211 20.1969,28.1193 20.5467,28.6851 0.4208,0.681 -3.032,1.0289 -10.2125,1.0289 h -10.8483 l -17.518,-25.75 -17.518,-25.75 -8.1927,-0.2904 -8.1927,-0.2905 v 26.0405 26.0404 h -9 -9 v -61.5 z m 34.4725,-4.5686 c 8.1939,-1.4269 13.3681,-4.493 17.1911,-10.1869 8.4625,-12.604 5.0275,-27.6192 -7.2196,-31.5585 -2.1692,-0.6977 -9.0065,-1.5418 -15.194,-1.8759 l -11.25,-0.6073 v 22.6486 22.6486 h 5.1681 c 2.8424,0 7.9294,-0.4809 11.3044,-1.0686 z m 59.841,62.8186 c 0.7371,-1.7875 11.8706,-29.4625 24.7411,-61.5 l 23.4007,-58.25 h 8.6638 8.6637 l 1.7084,4.25 c 7.547,18.7757 46.5088,117.8189 46.5088,118.2282 0,0.287 -4.2323,0.5218 -9.405,0.5218 h -9.4051 l -6.7773,-17 -6.7774,-17 h -26.2226 -26.2227 l -6.7773,17 -6.7774,17 h -8.331 -8.331 z m 75.6865,-44.1942 c 0,-0.9955 -20.2248,-51.6634 -20.5057,-51.3717 -0.5839,0.6064 -20.4943,50.1177 -20.4943,50.9632 0,0.469 9.225,0.8527 20.5,0.8527 11.275,0 20.5,-0.1999 20.5,-0.4442 z"
       id="path22193"
       sodipodi:nodetypes="sssscssscccssscssssscsssscsssssscccccccccccsscccccccccssscssssssscssssssssssscssccssssssssssssscsccssscssssssssccccssscscssssssscccssssscssssscssssscssscsssscccsssssscccccccccccsscccccccccssscssssscscssssssscssssssssssscsccccccccccsscccccccccssscssccsscccccccccccsscccccccccssscsssssscccsssscccccccccssssssscccccccccsscccccccccccsscsssssssssscccsssscscsssssssscsccccccccccccccccccccccccccccccccccccsssscccccccsssccccccccccccccccccccccccccccccccccccccccccccccsscccsscccccccccccccccccccccssscccccsscccccccccccccccccccccccccccccccccccssssscccsssscsscccssssssscccssssssssssscccssssscccssssssscccsssssscccsssssssssscccssssscccccccssssssscccsssscccccccsssccccccccccccccccccccccccccccccccccccccccccccccccccccccccccccccccccccccccccccccccccccccccccsscsssscccccccccsssssssscccsccssscccccccccssscccccccccccccccccccccccccccccccccccccccccccccccccccccccccccccccccccccccccccccccccccccccccsscccssscccccccssssssssscccsssscssscccccccccccsssscccsssscccssscccccccccssssss" />
    <path
       id="rect46897"
       style="fill:#004a8f;stroke-width:60.0273"
       d="m 816.81104,356.74548 176.44348,0 c 48.77958,0 100.45198,53.34363 100.45198,99.25124 l 0.123,243.41219 -0.123,85.24359 -117.8241,0.013 0.23895,-328.66878 h -40.28052 l 0.14403,243.41218 -119.17382,10e-6 z"
       sodipodi:nodetypes="ccccccccccc" />
    <path
       style="fill:none;fill-opacity:1;stroke:#808285;stroke-width:27.6;stroke-linecap:round;stroke-linejoin:round;stroke-miterlimit:4;stroke-dasharray:none;stroke-opacity:1"
       d="m 1591.7456,559.74379 c 8.2381,-30.30349 32.2353,-25.67603 52.7846,-22.09812 23.4713,-24.36926 61.8397,-54.94641 79.1287,-56.4182 18.8927,-1.60833 38.9175,51.74411 56.8447,55.4143 24.933,5.10449 39.7187,-39.69141 62.4425,-42.61696 25.1811,7.76075 34.9179,53.70857 62.3721,65.49611 12.5731,-11.32789 2.1173,-238.64753 11.6212,-251.94452 17.6529,22.07773 12.4381,155.95915 12.1371,249.86481"
       id="path48757"
       sodipodi:nodetypes="ccsscccc" />
    <path
       style="fill:none;fill-opacity:1;stroke:#808285;stroke-width:27.6;stroke-linecap:round;stroke-linejoin:round;stroke-miterlimit:4;stroke-dasharray:none;stroke-opacity:1"
       d="m 1252.4147,562.04637 c 8.2381,-30.30349 32.2353,-25.67603 52.7846,-22.09812 23.4713,-24.36926 61.8397,-54.94641 79.1287,-56.4182 18.8927,-1.60833 38.9175,51.74411 56.8447,55.4143 24.933,5.10449 39.7187,-39.69141 62.4425,-42.61696 25.1811,7.76075 34.9179,53.70857 62.3721,65.49611 12.5731,-11.32789 2.1173,-238.64753 11.6212,-251.94452 17.6529,22.07773 12.4381,155.95915 12.1371,249.86481"
       id="path15319"
       sodipodi:nodetypes="ccsscccc" />
    <path
       style="fill:none;fill-opacity:1;stroke:#808285;stroke-width:27.6;stroke-linecap:butt;stroke-linejoin:round;stroke-miterlimit:4;stroke-dasharray:none;stroke-opacity:1"
       d="m 1056.6661,545.06283 39.3963,-1.12241 c 35.1,-1.00002 50.3176,-42.08711 68.1982,-44.34713 25.1811,7.76075 34.9416,54.74525 62.3958,66.53279 12.5731,-11.32789 2.1173,-238.64753 11.6212,-251.94452 17.6529,22.07773 12.4381,155.95915 12.1371,249.86481"
       id="path15498"
       sodipodi:nodetypes="cscccc" />
    <path
       style="fill:none;fill-opacity:1;stroke:#808285;stroke-width:27.6;stroke-linecap:butt;stroke-linejoin:round;stroke-miterlimit:4;stroke-dasharray:none;stroke-opacity:1"
       d="m 1929.0765,557.44121 c 8.2381,-30.30349 34.2353,-25.67603 54.7846,-22.09812 23.4713,-24.36926 61.8397,-54.94641 79.1287,-56.4182 18.8927,-1.60833 42.2823,48.21515 54.4944,52.35686"
       id="path15941"
       sodipodi:nodetypes="ccsc" />
  </g>
</svg>
